<svg width="200" height="83" viewBox="0 0 293 83" fill="none" xmlns="http://www.w3.org/2000/svg">
<path d="M19.5564 81.5136H0L15.1227 1.44629H34.459L29.142 30.0003C31.9588 28.0542 35.9046 26.0342 40.9795 23.9402C46.1677 22.8193 50.2837 22.2588 53.3273 22.2588C63.8161 22.2588 72.1565 25.0728 78.3484 30.7009C84.5402 36.3289 87.6362 42.8594 87.6362 50.2923C87.6362 55.9921 85.6537 61.4259 81.6887 66.5935C77.7237 71.7612 72.4017 75.7879 65.7228 78.6737C59.1335 81.5392 52.0231 83.012 44.8377 83C39.8952 83 35.3556 82.1858 31.2187 80.5578C27.0819 78.9297 23.6933 76.5578 21.0527 73.4418L19.5564 81.5136ZM48.5808 34.7468C43.8152 34.7468 39.6567 35.5358 36.1054 37.1138C32.515 38.7192 29.424 41.2631 27.1578 44.4775C24.7508 47.8136 23.5473 51.2173 23.5473 54.6885C23.5473 59.2507 25.3588 62.9205 28.9819 65.6978C32.6049 68.4751 37.3831 69.863 43.3164 69.8613C50.2222 69.8613 56.083 68.0022 60.8987 64.2841C65.7144 60.566 68.1223 55.7669 68.1223 49.887C68.1223 45.3532 66.2982 41.696 62.6502 38.9153C59.0021 36.1346 54.3115 34.7443 48.5783 34.7443L48.5808 34.7468Z" fill="#fff"/>
<path d="M107.766 23.7149H127.187L116.428 81.5135H96.8615L107.766 23.7149ZM121.237 2.41982e-06C124.573 2.41982e-06 127.425 0.85906 129.794 2.57717C132.163 4.29528 133.35 6.35868 133.357 8.76737C133.357 11.1761 132.169 13.2395 129.794 14.9576C127.419 16.6757 124.566 17.5339 121.237 17.5322C117.901 17.5322 115.048 16.6732 112.68 14.9551C110.311 13.237 109.123 11.1736 109.117 8.76487C109.117 6.35618 110.304 4.29278 112.68 2.57467C115.055 0.856558 117.907 -0.00166322 121.237 2.41982e-06Z" fill="#fff"/>
<path d="M148.337 1.44629H167.894L152.764 81.5136H133.215L148.337 1.44629Z" fill="#fff"/>
<path d="M179.889 23.7149H199.303L188.544 81.5135H168.977L179.889 23.7149ZM193.355 2.41982e-06C196.691 2.41982e-06 199.544 0.85906 201.912 2.57717C204.281 4.29528 205.469 6.35868 205.475 8.76737C205.475 11.1761 204.288 13.2395 201.912 14.9576C199.537 16.6757 196.685 17.5347 193.355 17.5347C190.019 17.5347 187.167 16.6757 184.798 14.9576C182.429 13.2395 181.242 11.1752 181.237 8.76487C181.237 6.35618 182.425 4.29278 184.8 2.57467C187.176 0.856558 190.027 -0.00166322 193.355 2.41982e-06Z" fill="#fff"/>
<path d="M267.535 64.5844L284.799 71.0549C280.931 74.7246 275.802 77.6329 269.411 79.7797C263.021 81.9265 255.932 82.9957 248.144 82.9874C235.952 82.9874 226.343 80.5078 219.317 75.5486C212.291 70.5895 208.778 64.0006 208.778 55.782C208.778 46.3975 213.172 38.455 221.962 31.9545C230.751 25.454 241.364 22.2013 253.801 22.1963C261.292 22.1963 267.964 23.3831 273.818 25.7568C279.671 28.1304 284.286 31.5842 287.662 36.118C291.04 40.6518 292.729 45.5726 292.729 50.8804C292.691 52.8493 292.444 54.8086 291.993 56.7253H228.242C228.437 60.7437 230.261 63.9447 233.714 66.3284C237.167 68.7121 241.928 69.9031 247.998 69.9014C255.343 69.9131 261.855 68.1407 267.535 64.5844ZM272.539 46.234C271.13 42.7563 268.521 39.8988 265.185 38.1797C261.757 36.3565 257.62 35.4441 252.772 35.4424C247.973 35.4424 243.636 36.3807 239.762 38.2573C235.887 40.1339 232.949 42.7903 230.949 46.2265L272.539 46.234Z" fill="#fff"/>
</svg>
